# MagicaVoxel @ Ephtracy

# group
o 

# material
mtllib zombie.mtl
usemtl palette

# normals
vn -1 0 0
vn 1 0 0
vn 0 0 1
vn 0 0 -1
vn 0 -1 0
vn 0 1 0

# texcoords
vt 0.587891 0.5
vt 0.650391 0.5
vt 0.775391 0.5
vt 0.912109 0.5
vt 0.986328 0.5
vt 0.994141 0.5

# verts
v -0.3 0.7 0.4
v -0.3 0.7 0.1
v -0.3 0.7 -0.1
v -0.3 0.8 0.4
v -0.3 0.8 0.1
v -0.3 0.8 -0.1
v -0.3 0.9 0.2
v -0.3 0.9 -0.3
v -0.3 1.1 0.1
v -0.3 1.1 0
v -0.3 1.3 0.2
v -0.3 1.3 0.1
v -0.3 1.3 0
v -0.3 1.3 -0.3
v -0.3 1.5 0.2
v -0.3 1.5 -0.3
v -0.2 0 0
v -0.2 0 -0.1
v -0.2 0.1 0
v -0.2 0.1 -0.1
v -0.2 0.3 0.1
v -0.2 0.3 0
v -0.2 0.3 -0.1
v -0.2 0.3 -0.2
v -0.2 0.4 0
v -0.2 0.4 -0.2
v -0.2 0.7 0.1
v -0.2 0.7 -0.1
v -0.2 0.8 0.1
v -0.2 0.8 -0.1
v -0.2 0.8 -0.2
v -0.2 0.9 0.1
v -0.2 0.9 -0.2
v 0.1 0 0
v 0.1 0 -0.1
v 0.1 0.1 0
v 0.1 0.1 -0.1
v 0.1 0.3 0
v 0.1 0.3 -0.1
v 0.2 0.7 0.4
v 0.2 0.7 0.1
v 0.2 0.8 0.4
v 0.2 0.8 0.1
v -0.2 0.7 0.4
v -0.2 0.7 0.1
v -0.2 0.8 0.4
v -0.2 0.8 0.1
v -0.1 0 0
v -0.1 0 -0.1
v -0.1 0.1 0
v -0.1 0.1 -0.1
v -0.1 0.3 0
v -0.1 0.3 -0.1
v 0.2 0 0
v 0.2 0 -0.1
v 0.2 0.1 0
v 0.2 0.1 -0.1
v 0.2 0.3 0.1
v 0.2 0.3 0
v 0.2 0.3 -0.1
v 0.2 0.3 -0.2
v 0.2 0.4 0.1
v 0.2 0.4 -0.1
v 0.2 0.7 0.1
v 0.2 0.7 -0.1
v 0.2 0.8 0.1
v 0.2 0.8 -0.1
v 0.2 0.8 -0.2
v 0.2 0.9 0.1
v 0.2 0.9 -0.2
v 0.3 0.7 0.4
v 0.3 0.7 0.1
v 0.3 0.7 -0.1
v 0.3 0.8 0.4
v 0.3 0.8 0.1
v 0.3 0.8 -0.1
v 0.3 0.9 0.2
v 0.3 0.9 -0.3
v 0.3 1.1 0.1
v 0.3 1.1 0
v 0.3 1.3 0.2
v 0.3 1.3 0.1
v 0.3 1.3 0
v 0.3 1.3 -0.3
v 0.3 1.5 0.2
v 0.3 1.5 -0.3
v -0.3 0.7 0.4
v -0.3 0.8 0.4
v -0.2 0.7 0.4
v -0.2 0.8 0.4
v 0.2 0.7 0.4
v 0.2 0.8 0.4
v 0.3 0.7 0.4
v 0.3 0.8 0.4
v -0.3 0.9 0.2
v -0.3 1.3 0.2
v -0.3 1.5 0.2
v -0.2 1.1 0.2
v -0.2 1.2 0.2
v -0.2 1.3 0.2
v -0.2 1.4 0.2
v -0.1 1.1 0.2
v -0.1 1.2 0.2
v 0.1 1.1 0.2
v 0.1 1.2 0.2
v 0.2 1.1 0.2
v 0.2 1.2 0.2
v 0.2 1.3 0.2
v 0.2 1.4 0.2
v 0.3 0.9 0.2
v 0.3 1.3 0.2
v 0.3 1.5 0.2
v -0.2 0.3 0.1
v -0.2 0.7 0.1
v -0.2 0.8 0.1
v -0.2 0.9 0.1
v -0.1 0.3 0.1
v -0.1 0.4 0.1
v 0.2 0.3 0.1
v 0.2 0.4 0.1
v 0.2 0.7 0.1
v 0.2 0.8 0.1
v 0.2 0.9 0.1
v -0.2 0 0
v -0.2 0.1 0
v -0.2 0.3 0
v -0.1 0 0
v -0.1 0.1 0
v -0.1 0.3 0
v 0.1 0 0
v 0.1 0.1 0
v 0.1 0.3 0
v 0.2 0 0
v 0.2 0.1 0
v 0.2 0.3 0
v -0.3 0.7 -0.1
v -0.3 0.8 -0.1
v -0.2 0 -0.1
v -0.2 0.1 -0.1
v -0.2 0.3 -0.1
v -0.2 0.7 -0.1
v -0.2 0.8 -0.1
v -0.1 0 -0.1
v -0.1 0.1 -0.1
v -0.1 0.3 -0.1
v 0.1 0 -0.1
v 0.1 0.1 -0.1
v 0.1 0.3 -0.1
v 0.2 0 -0.1
v 0.2 0.1 -0.1
v 0.2 0.3 -0.1
v 0.2 0.7 -0.1
v 0.2 0.8 -0.1
v 0.3 0.7 -0.1
v 0.3 0.8 -0.1
v -0.2 0.3 -0.2
v -0.2 0.4 -0.2
v -0.2 0.8 -0.2
v -0.2 0.9 -0.2
v 0.1 0.3 -0.2
v 0.1 0.4 -0.2
v 0.2 0.3 -0.2
v 0.2 0.8 -0.2
v 0.2 0.9 -0.2
v -0.3 0.9 -0.3
v -0.3 1.3 -0.3
v -0.3 1.5 -0.3
v -0.2 1.2 -0.3
v -0.2 1.3 -0.3
v 0 1.1 -0.3
v 0 1.2 -0.3
v 0.1 1.1 -0.3
v 0.1 1.2 -0.3
v 0.2 1.2 -0.3
v 0.2 1.3 -0.3
v 0.3 0.9 -0.3
v 0.3 1.3 -0.3
v 0.3 1.5 -0.3
v -0.2 0 0
v -0.1 0 0
v 0.1 0 0
v 0.2 0 0
v -0.2 0 -0.1
v -0.1 0 -0.1
v 0.1 0 -0.1
v 0.2 0 -0.1
v -0.2 0.3 0.1
v -0.1 0.3 0.1
v 0.2 0.3 0.1
v -0.2 0.3 0
v -0.1 0.3 0
v 0.1 0.3 0
v 0.2 0.3 0
v -0.2 0.3 -0.1
v -0.1 0.3 -0.1
v 0.1 0.3 -0.1
v 0.2 0.3 -0.1
v -0.2 0.3 -0.2
v 0.1 0.3 -0.2
v 0.2 0.3 -0.2
v -0.3 0.7 0.4
v -0.2 0.7 0.4
v 0.2 0.7 0.4
v 0.3 0.7 0.4
v -0.3 0.7 0.1
v -0.2 0.7 0.1
v 0.2 0.7 0.1
v 0.3 0.7 0.1
v -0.3 0.7 -0.1
v -0.2 0.7 -0.1
v 0.2 0.7 -0.1
v 0.3 0.7 -0.1
v -0.3 0.9 0.2
v 0.3 0.9 0.2
v -0.2 0.9 0.1
v 0.2 0.9 0.1
v -0.2 0.9 -0.2
v 0.2 0.9 -0.2
v -0.3 0.9 -0.3
v 0.3 0.9 -0.3
v -0.3 0.8 0.4
v -0.2 0.8 0.4
v 0.2 0.8 0.4
v 0.3 0.8 0.4
v -0.3 0.8 0.1
v -0.2 0.8 0.1
v 0.2 0.8 0.1
v 0.3 0.8 0.1
v -0.3 0.8 -0.1
v -0.2 0.8 -0.1
v 0.2 0.8 -0.1
v 0.3 0.8 -0.1
v -0.3 1.5 0.2
v 0.3 1.5 0.2
v -0.3 1.5 -0.3
v 0.3 1.5 -0.3

# faces
f 4/2/1 2/2/1 1/2/1
f 5/1/1 3/1/1 2/1/1
f 5/2/1 2/2/1 4/2/1
f 6/1/1 3/1/1 5/1/1
f 9/2/1 8/2/1 7/2/1
f 10/2/1 8/2/1 9/2/1
f 11/2/1 9/2/1 7/2/1
f 12/4/1 10/4/1 9/4/1
f 12/2/1 9/2/1 11/2/1
f 13/2/1 8/2/1 10/2/1
f 13/4/1 10/4/1 12/4/1
f 14/2/1 8/2/1 13/2/1
f 15/4/1 12/4/1 11/4/1
f 15/4/1 13/4/1 12/4/1
f 15/4/1 14/4/1 13/4/1
f 16/4/1 14/4/1 15/4/1
f 19/5/1 18/5/1 17/5/1
f 20/5/1 18/5/1 19/5/1
f 22/3/1 20/3/1 19/3/1
f 23/3/1 20/3/1 22/3/1
f 25/3/1 23/3/1 22/3/1
f 25/3/1 24/3/1 23/3/1
f 25/1/1 22/1/1 21/1/1
f 26/3/1 24/3/1 25/3/1
f 27/1/1 25/1/1 21/1/1
f 27/1/1 26/1/1 25/1/1
f 28/1/1 26/1/1 27/1/1
f 30/1/1 26/1/1 28/1/1
f 31/1/1 26/1/1 30/1/1
f 32/2/1 30/2/1 29/2/1
f 32/2/1 31/2/1 30/2/1
f 33/2/1 31/2/1 32/2/1
f 36/5/1 35/5/1 34/5/1
f 37/5/1 35/5/1 36/5/1
f 38/3/1 37/3/1 36/3/1
f 39/3/1 37/3/1 38/3/1
f 42/2/1 41/2/1 40/2/1
f 43/2/1 41/2/1 42/2/1
f 44/2/2 45/2/2 46/2/2
f 46/2/2 45/2/2 47/2/2
f 48/5/2 49/5/2 50/5/2
f 50/5/2 49/5/2 51/5/2
f 50/3/2 51/3/2 52/3/2
f 52/3/2 51/3/2 53/3/2
f 54/5/2 55/5/2 56/5/2
f 56/5/2 55/5/2 57/5/2
f 56/3/2 57/3/2 59/3/2
f 59/3/2 57/3/2 60/3/2
f 59/3/2 60/3/2 62/3/2
f 58/3/2 59/3/2 62/3/2
f 60/1/2 61/1/2 63/1/2
f 62/3/2 60/3/2 63/3/2
f 62/1/2 63/1/2 64/1/2
f 63/1/2 61/1/2 65/1/2
f 64/1/2 63/1/2 65/1/2
f 65/1/2 61/1/2 67/1/2
f 67/1/2 61/1/2 68/1/2
f 66/2/2 67/2/2 69/2/2
f 67/2/2 68/2/2 69/2/2
f 69/2/2 68/2/2 70/2/2
f 71/2/2 72/2/2 74/2/2
f 72/1/2 73/1/2 75/1/2
f 74/2/2 72/2/2 75/2/2
f 75/1/2 73/1/2 76/1/2
f 77/2/2 78/2/2 79/2/2
f 79/2/2 78/2/2 80/2/2
f 77/2/2 79/2/2 81/2/2
f 79/4/2 80/4/2 82/4/2
f 81/2/2 79/2/2 82/2/2
f 80/2/2 78/2/2 83/2/2
f 82/4/2 80/4/2 83/4/2
f 83/2/2 78/2/2 84/2/2
f 81/4/2 82/4/2 85/4/2
f 82/4/2 83/4/2 85/4/2
f 83/4/2 84/4/2 85/4/2
f 85/4/2 84/4/2 86/4/2
f 89/2/3 88/2/3 87/2/3
f 90/2/3 88/2/3 89/2/3
f 93/2/3 92/2/3 91/2/3
f 94/2/3 92/2/3 93/2/3
f 98/2/3 96/2/3 95/2/3
f 99/2/3 96/2/3 98/2/3
f 100/4/3 97/4/3 96/4/3
f 100/2/3 96/2/3 99/2/3
f 101/4/3 97/4/3 100/4/3
f 102/6/3 99/6/3 98/6/3
f 102/2/3 98/2/3 95/2/3
f 103/2/3 101/2/3 100/2/3
f 103/6/3 99/6/3 102/6/3
f 103/2/3 100/2/3 99/2/3
f 104/2/3 102/2/3 95/2/3
f 104/2/3 103/2/3 102/2/3
f 105/2/3 101/2/3 103/2/3
f 105/2/3 103/2/3 104/2/3
f 106/2/3 104/2/3 95/2/3
f 106/6/3 105/6/3 104/6/3
f 107/2/3 101/2/3 105/2/3
f 107/6/3 105/6/3 106/6/3
f 108/2/3 101/2/3 107/2/3
f 109/4/3 97/4/3 101/4/3
f 109/2/3 101/2/3 108/2/3
f 110/2/3 108/2/3 107/2/3
f 110/2/3 106/2/3 95/2/3
f 110/2/3 107/2/3 106/2/3
f 111/4/3 109/4/3 108/4/3
f 111/2/3 108/2/3 110/2/3
f 112/4/3 97/4/3 109/4/3
f 112/4/3 109/4/3 111/4/3
f 117/1/3 114/1/3 113/1/3
f 117/1/3 115/1/3 114/1/3
f 118/1/3 115/1/3 117/1/3
f 119/3/3 118/3/3 117/3/3
f 120/1/3 115/1/3 118/1/3
f 120/3/3 118/3/3 119/3/3
f 121/1/3 115/1/3 120/1/3
f 122/2/3 116/2/3 115/2/3
f 122/1/3 115/1/3 121/1/3
f 123/2/3 116/2/3 122/2/3
f 127/5/3 125/5/3 124/5/3
f 128/3/3 126/3/3 125/3/3
f 128/5/3 125/5/3 127/5/3
f 129/3/3 126/3/3 128/3/3
f 133/5/3 131/5/3 130/5/3
f 134/3/3 132/3/3 131/3/3
f 134/5/3 131/5/3 133/5/3
f 135/3/3 132/3/3 134/3/3
f 136/1/4 137/1/4 141/1/4
f 141/1/4 137/1/4 142/1/4
f 138/5/4 139/5/4 143/5/4
f 139/3/4 140/3/4 144/3/4
f 143/5/4 139/5/4 144/5/4
f 144/3/4 140/3/4 145/3/4
f 146/5/4 147/5/4 149/5/4
f 147/3/4 148/3/4 150/3/4
f 149/5/4 147/5/4 150/5/4
f 150/3/4 148/3/4 151/3/4
f 152/1/4 153/1/4 154/1/4
f 154/1/4 153/1/4 155/1/4
f 156/3/4 157/3/4 160/3/4
f 157/1/4 158/1/4 161/1/4
f 160/3/4 157/3/4 161/3/4
f 160/1/4 161/1/4 162/1/4
f 158/2/4 159/2/4 163/2/4
f 162/1/4 161/1/4 163/1/4
f 161/1/4 158/1/4 163/1/4
f 163/2/4 159/2/4 164/2/4
f 165/2/4 166/2/4 168/2/4
f 166/4/4 167/4/4 169/4/4
f 168/2/4 166/2/4 169/2/4
f 165/2/4 168/2/4 170/2/4
f 168/4/4 169/4/4 171/4/4
f 170/2/4 168/2/4 171/2/4
f 165/2/4 170/2/4 172/2/4
f 170/4/4 171/4/4 172/4/4
f 171/4/4 169/4/4 173/4/4
f 172/4/4 171/4/4 173/4/4
f 172/2/4 173/2/4 174/2/4
f 173/4/4 169/4/4 174/4/4
f 169/4/4 167/4/4 175/4/4
f 174/4/4 169/4/4 175/4/4
f 172/2/4 174/2/4 176/2/4
f 165/2/4 172/2/4 176/2/4
f 174/2/4 175/2/4 176/2/4
f 175/4/4 167/4/4 177/4/4
f 176/2/4 175/2/4 177/2/4
f 177/4/4 167/4/4 178/4/4
f 183/5/5 180/5/5 179/5/5
f 184/5/5 180/5/5 183/5/5
f 185/5/5 182/5/5 181/5/5
f 186/5/5 182/5/5 185/5/5
f 190/1/5 188/1/5 187/1/5
f 191/3/5 189/3/5 188/3/5
f 191/1/5 188/1/5 190/1/5
f 192/3/5 189/3/5 191/3/5
f 193/3/5 189/3/5 192/3/5
f 195/3/5 192/3/5 191/3/5
f 196/3/5 192/3/5 195/3/5
f 198/3/5 195/3/5 194/3/5
f 198/3/5 196/3/5 195/3/5
f 199/1/5 197/1/5 196/1/5
f 199/3/5 196/3/5 198/3/5
f 200/1/5 197/1/5 199/1/5
f 205/2/5 202/2/5 201/2/5
f 206/2/5 202/2/5 205/2/5
f 207/2/5 204/2/5 203/2/5
f 208/2/5 204/2/5 207/2/5
f 209/1/5 206/1/5 205/1/5
f 210/1/5 206/1/5 209/1/5
f 211/1/5 208/1/5 207/1/5
f 212/1/5 208/1/5 211/1/5
f 215/2/5 214/2/5 213/2/5
f 216/2/5 214/2/5 215/2/5
f 217/2/5 215/2/5 213/2/5
f 218/2/5 214/2/5 216/2/5
f 219/2/5 217/2/5 213/2/5
f 219/2/5 218/2/5 217/2/5
f 220/2/5 214/2/5 218/2/5
f 220/2/5 218/2/5 219/2/5
f 221/2/6 222/2/6 225/2/6
f 225/2/6 222/2/6 226/2/6
f 223/2/6 224/2/6 227/2/6
f 227/2/6 224/2/6 228/2/6
f 225/1/6 226/1/6 229/1/6
f 229/1/6 226/1/6 230/1/6
f 227/1/6 228/1/6 231/1/6
f 231/1/6 228/1/6 232/1/6
f 233/4/6 234/4/6 235/4/6
f 235/4/6 234/4/6 236/4/6
