# MagicaVoxel @ Ephtracy

# group
o 

# material
mtllib box.mtl
usemtl palette

# normals
vn -1 0 0
vn 1 0 0
vn 0 0 1
vn 0 0 -1
vn 0 -1 0
vn 0 1 0

# texcoords
vt 0.232422 0.5
vt 0.537109 0.5

# verts
v -0.5 0 0.5
v -0.5 0 -0.5
v -0.5 0.1 0.3
v -0.5 0.1 -0.4
v -0.5 0.2 0.4
v -0.5 0.2 0.3
v -0.5 0.2 0.2
v -0.5 0.3 0.3
v -0.5 0.3 0.2
v -0.5 0.3 0.1
v -0.5 0.4 0.2
v -0.5 0.4 0.1
v -0.5 0.4 0
v -0.5 0.5 0.1
v -0.5 0.5 0
v -0.5 0.5 -0.1
v -0.5 0.6 0
v -0.5 0.6 -0.1
v -0.5 0.6 -0.2
v -0.5 0.7 -0.1
v -0.5 0.7 -0.2
v -0.5 0.7 -0.3
v -0.5 0.8 -0.2
v -0.5 0.8 -0.3
v -0.5 0.8 -0.4
v -0.5 0.9 0.4
v -0.5 0.9 -0.3
v -0.5 1 0.5
v -0.5 1 -0.5
v -0.4 0.1 0.3
v -0.4 0.1 -0.4
v -0.4 0.2 0.4
v -0.4 0.2 0.3
v -0.4 0.2 0.2
v -0.4 0.3 0.3
v -0.4 0.3 0.2
v -0.4 0.3 0.1
v -0.4 0.4 0.2
v -0.4 0.4 0.1
v -0.4 0.4 0
v -0.4 0.5 0.1
v -0.4 0.5 0
v -0.4 0.5 -0.1
v -0.4 0.6 0
v -0.4 0.6 -0.1
v -0.4 0.6 -0.2
v -0.4 0.7 -0.1
v -0.4 0.7 -0.2
v -0.4 0.7 -0.3
v -0.4 0.8 -0.2
v -0.4 0.8 -0.3
v -0.4 0.8 -0.4
v -0.4 0.9 0.4
v -0.4 0.9 -0.3
v -0.3 0 0.3
v -0.3 0 0.2
v -0.3 0 -0.2
v -0.3 0 -0.3
v -0.3 0.1 0.3
v -0.3 0.1 0.2
v -0.3 0.1 -0.2
v -0.3 0.1 -0.3
v -0.3 0.2 0.5
v -0.3 0.2 0.4
v -0.3 0.3 0.5
v -0.3 0.3 0.4
v -0.3 0.7 -0.4
v -0.3 0.7 -0.5
v -0.3 0.8 -0.4
v -0.3 0.8 -0.5
v -0.3 0.9 0.3
v -0.3 0.9 0.2
v -0.3 0.9 -0.2
v -0.3 0.9 -0.3
v -0.3 1 0.3
v -0.3 1 0.2
v -0.3 1 -0.2
v -0.3 1 -0.3
v -0.2 0 0.2
v -0.2 0 0.1
v -0.2 0 -0.1
v -0.2 0 -0.2
v -0.2 0.1 0.2
v -0.2 0.1 0.1
v -0.2 0.1 -0.1
v -0.2 0.1 -0.2
v -0.2 0.3 0.5
v -0.2 0.3 0.4
v -0.2 0.4 0.5
v -0.2 0.4 0.4
v -0.2 0.6 -0.4
v -0.2 0.6 -0.5
v -0.2 0.7 -0.4
v -0.2 0.7 -0.5
v -0.2 0.9 0.2
v -0.2 0.9 0.1
v -0.2 0.9 -0.1
v -0.2 0.9 -0.2
v -0.2 1 0.2
v -0.2 1 0.1
v -0.2 1 -0.1
v -0.2 1 -0.2
v -0.1 0 0.1
v -0.1 0 -0.1
v -0.1 0.1 0.1
v -0.1 0.1 -0.1
v -0.1 0.4 0.5
v -0.1 0.4 0.4
v -0.1 0.5 0.5
v -0.1 0.5 0.4
v -0.1 0.5 -0.4
v -0.1 0.5 -0.5
v -0.1 0.6 -0.4
v -0.1 0.6 -0.5
v -0.1 0.9 0.1
v -0.1 0.9 -0.1
v -0.1 1 0.1
v -0.1 1 -0.1
v 0 0.4 -0.4
v 0 0.4 -0.5
v 0 0.5 0.5
v 0 0.5 0.4
v 0 0.5 -0.4
v 0 0.5 -0.5
v 0 0.6 0.5
v 0 0.6 0.4
v 0.1 0 0.2
v 0.1 0 0.1
v 0.1 0 -0.1
v 0.1 0 -0.2
v 0.1 0.1 0.2
v 0.1 0.1 0.1
v 0.1 0.1 -0.1
v 0.1 0.1 -0.2
v 0.1 0.3 -0.4
v 0.1 0.3 -0.5
v 0.1 0.4 -0.4
v 0.1 0.4 -0.5
v 0.1 0.6 0.5
v 0.1 0.6 0.4
v 0.1 0.7 0.5
v 0.1 0.7 0.4
v 0.1 0.9 0.2
v 0.1 0.9 0.1
v 0.1 0.9 -0.1
v 0.1 0.9 -0.2
v 0.1 1 0.2
v 0.1 1 0.1
v 0.1 1 -0.1
v 0.1 1 -0.2
v 0.2 0 0.3
v 0.2 0 0.2
v 0.2 0 -0.2
v 0.2 0 -0.3
v 0.2 0.1 0.3
v 0.2 0.1 0.2
v 0.2 0.1 -0.2
v 0.2 0.1 -0.3
v 0.2 0.2 -0.4
v 0.2 0.2 -0.5
v 0.2 0.3 -0.4
v 0.2 0.3 -0.5
v 0.2 0.7 0.5
v 0.2 0.7 0.4
v 0.2 0.8 0.5
v 0.2 0.8 0.4
v 0.2 0.9 0.3
v 0.2 0.9 0.2
v 0.2 0.9 -0.2
v 0.2 0.9 -0.3
v 0.2 1 0.3
v 0.2 1 0.2
v 0.2 1 -0.2
v 0.2 1 -0.3
v 0.3 0 0.4
v 0.3 0 0.3
v 0.3 0 -0.3
v 0.3 0 -0.4
v 0.3 0.1 0.4
v 0.3 0.1 0.3
v 0.3 0.1 -0.3
v 0.3 0.1 -0.4
v 0.3 0.1 -0.5
v 0.3 0.2 -0.4
v 0.3 0.2 -0.5
v 0.3 0.8 0.5
v 0.3 0.8 0.4
v 0.3 0.9 0.5
v 0.3 0.9 0.4
v 0.3 0.9 0.3
v 0.3 0.9 -0.3
v 0.3 0.9 -0.4
v 0.3 1 0.4
v 0.3 1 0.3
v 0.3 1 -0.3
v 0.3 1 -0.4
v 0.4 0 0.3
v 0.4 0 -0.3
v 0.4 0.1 0.5
v 0.4 0.1 0.4
v 0.4 0.1 0.3
v 0.4 0.1 -0.3
v 0.4 0.2 -0.4
v 0.4 0.2 -0.5
v 0.4 0.8 0.5
v 0.4 0.8 0.4
v 0.4 0.9 0.3
v 0.4 0.9 -0.3
v 0.4 0.9 -0.4
v 0.4 0.9 -0.5
v 0.4 1 0.3
v 0.4 1 -0.3
v -0.4 0 0.3
v -0.4 0 -0.3
v -0.4 0.1 0.3
v -0.4 0.1 -0.3
v -0.4 0.1 -0.4
v -0.4 0.1 -0.5
v -0.4 0.2 0.5
v -0.4 0.2 0.4
v -0.4 0.8 -0.4
v -0.4 0.8 -0.5
v -0.4 0.9 0.5
v -0.4 0.9 0.4
v -0.4 0.9 0.3
v -0.4 0.9 -0.3
v -0.4 1 0.3
v -0.4 1 -0.3
v -0.3 0 0.4
v -0.3 0 0.3
v -0.3 0 -0.3
v -0.3 0 -0.4
v -0.3 0.1 0.5
v -0.3 0.1 0.4
v -0.3 0.1 0.3
v -0.3 0.1 -0.3
v -0.3 0.1 -0.4
v -0.3 0.2 0.5
v -0.3 0.2 0.4
v -0.3 0.8 -0.4
v -0.3 0.8 -0.5
v -0.3 0.9 0.4
v -0.3 0.9 0.3
v -0.3 0.9 -0.3
v -0.3 0.9 -0.4
v -0.3 0.9 -0.5
v -0.3 1 0.4
v -0.3 1 0.3
v -0.3 1 -0.3
v -0.3 1 -0.4
v -0.2 0 0.3
v -0.2 0 0.2
v -0.2 0 -0.2
v -0.2 0 -0.3
v -0.2 0.1 0.3
v -0.2 0.1 0.2
v -0.2 0.1 -0.2
v -0.2 0.1 -0.3
v -0.2 0.2 0.5
v -0.2 0.2 0.4
v -0.2 0.3 0.5
v -0.2 0.3 0.4
v -0.2 0.7 -0.4
v -0.2 0.7 -0.5
v -0.2 0.8 -0.4
v -0.2 0.8 -0.5
v -0.2 0.9 0.3
v -0.2 0.9 0.2
v -0.2 0.9 -0.2
v -0.2 0.9 -0.3
v -0.2 1 0.3
v -0.2 1 0.2
v -0.2 1 -0.2
v -0.2 1 -0.3
v -0.1 0 0.2
v -0.1 0 0.1
v -0.1 0 -0.1
v -0.1 0 -0.2
v -0.1 0.1 0.2
v -0.1 0.1 0.1
v -0.1 0.1 -0.1
v -0.1 0.1 -0.2
v -0.1 0.3 0.5
v -0.1 0.3 0.4
v -0.1 0.4 0.5
v -0.1 0.4 0.4
v -0.1 0.6 -0.4
v -0.1 0.6 -0.5
v -0.1 0.7 -0.4
v -0.1 0.7 -0.5
v -0.1 0.9 0.2
v -0.1 0.9 0.1
v -0.1 0.9 -0.1
v -0.1 0.9 -0.2
v -0.1 1 0.2
v -0.1 1 0.1
v -0.1 1 -0.1
v -0.1 1 -0.2
v 0 0.4 0.5
v 0 0.4 0.4
v 0 0.5 0.5
v 0 0.5 0.4
v 0 0.5 -0.4
v 0 0.5 -0.5
v 0 0.6 -0.4
v 0 0.6 -0.5
v 0.1 0 0.1
v 0.1 0 -0.1
v 0.1 0.1 0.1
v 0.1 0.1 -0.1
v 0.1 0.4 -0.4
v 0.1 0.4 -0.5
v 0.1 0.5 0.5
v 0.1 0.5 0.4
v 0.1 0.5 -0.4
v 0.1 0.5 -0.5
v 0.1 0.6 0.5
v 0.1 0.6 0.4
v 0.1 0.9 0.1
v 0.1 0.9 -0.1
v 0.1 1 0.1
v 0.1 1 -0.1
v 0.2 0 0.2
v 0.2 0 0.1
v 0.2 0 -0.1
v 0.2 0 -0.2
v 0.2 0.1 0.2
v 0.2 0.1 0.1
v 0.2 0.1 -0.1
v 0.2 0.1 -0.2
v 0.2 0.3 -0.4
v 0.2 0.3 -0.5
v 0.2 0.4 -0.4
v 0.2 0.4 -0.5
v 0.2 0.6 0.5
v 0.2 0.6 0.4
v 0.2 0.7 0.5
v 0.2 0.7 0.4
v 0.2 0.9 0.2
v 0.2 0.9 0.1
v 0.2 0.9 -0.1
v 0.2 0.9 -0.2
v 0.2 1 0.2
v 0.2 1 0.1
v 0.2 1 -0.1
v 0.2 1 -0.2
v 0.3 0 0.3
v 0.3 0 0.2
v 0.3 0 -0.2
v 0.3 0 -0.3
v 0.3 0.1 0.3
v 0.3 0.1 0.2
v 0.3 0.1 -0.2
v 0.3 0.1 -0.3
v 0.3 0.2 -0.4
v 0.3 0.2 -0.5
v 0.3 0.3 -0.4
v 0.3 0.3 -0.5
v 0.3 0.7 0.5
v 0.3 0.7 0.4
v 0.3 0.8 0.5
v 0.3 0.8 0.4
v 0.3 0.9 0.3
v 0.3 0.9 0.2
v 0.3 0.9 -0.2
v 0.3 0.9 -0.3
v 0.3 1 0.3
v 0.3 1 0.2
v 0.3 1 -0.2
v 0.3 1 -0.3
v 0.4 0.1 0.4
v 0.4 0.1 -0.3
v 0.4 0.2 -0.2
v 0.4 0.2 -0.3
v 0.4 0.2 -0.4
v 0.4 0.3 -0.1
v 0.4 0.3 -0.2
v 0.4 0.3 -0.3
v 0.4 0.4 0
v 0.4 0.4 -0.1
v 0.4 0.4 -0.2
v 0.4 0.5 0.1
v 0.4 0.5 0
v 0.4 0.5 -0.1
v 0.4 0.6 0.2
v 0.4 0.6 0.1
v 0.4 0.6 0
v 0.4 0.7 0.3
v 0.4 0.7 0.2
v 0.4 0.7 0.1
v 0.4 0.8 0.4
v 0.4 0.8 0.3
v 0.4 0.8 0.2
v 0.4 0.9 0.3
v 0.4 0.9 -0.4
v 0.5 0 0.5
v 0.5 0 -0.5
v 0.5 0.1 0.4
v 0.5 0.1 -0.3
v 0.5 0.2 -0.2
v 0.5 0.2 -0.3
v 0.5 0.2 -0.4
v 0.5 0.3 -0.1
v 0.5 0.3 -0.2
v 0.5 0.3 -0.3
v 0.5 0.4 0
v 0.5 0.4 -0.1
v 0.5 0.4 -0.2
v 0.5 0.5 0.1
v 0.5 0.5 0
v 0.5 0.5 -0.1
v 0.5 0.6 0.2
v 0.5 0.6 0.1
v 0.5 0.6 0
v 0.5 0.7 0.3
v 0.5 0.7 0.2
v 0.5 0.7 0.1
v 0.5 0.8 0.4
v 0.5 0.8 0.3
v 0.5 0.8 0.2
v 0.5 0.9 0.3
v 0.5 0.9 -0.4
v 0.5 1 0.5
v 0.5 1 -0.5
v -0.5 0 0.5
v -0.5 1 0.5
v -0.4 0.2 0.5
v -0.4 0.9 0.5
v -0.3 0.1 0.5
v -0.3 0.2 0.5
v -0.3 0.3 0.5
v -0.2 0.2 0.5
v -0.2 0.3 0.5
v -0.2 0.4 0.5
v -0.1 0.3 0.5
v -0.1 0.4 0.5
v -0.1 0.5 0.5
v 0 0.4 0.5
v 0 0.5 0.5
v 0 0.6 0.5
v 0.1 0.5 0.5
v 0.1 0.6 0.5
v 0.1 0.7 0.5
v 0.2 0.6 0.5
v 0.2 0.7 0.5
v 0.2 0.8 0.5
v 0.3 0.7 0.5
v 0.3 0.8 0.5
v 0.3 0.9 0.5
v 0.4 0.1 0.5
v 0.4 0.8 0.5
v 0.5 0 0.5
v 0.5 1 0.5
v -0.4 0.2 0.4
v -0.4 0.9 0.4
v -0.3 0.1 0.4
v -0.3 0.2 0.4
v -0.3 0.3 0.4
v -0.2 0.2 0.4
v -0.2 0.3 0.4
v -0.2 0.4 0.4
v -0.1 0.3 0.4
v -0.1 0.4 0.4
v -0.1 0.5 0.4
v 0 0.4 0.4
v 0 0.5 0.4
v 0 0.6 0.4
v 0.1 0.5 0.4
v 0.1 0.6 0.4
v 0.1 0.7 0.4
v 0.2 0.6 0.4
v 0.2 0.7 0.4
v 0.2 0.8 0.4
v 0.3 0.7 0.4
v 0.3 0.8 0.4
v 0.3 0.9 0.4
v 0.4 0.1 0.4
v 0.4 0.8 0.4
v -0.5 0.2 0.3
v -0.5 0.3 0.3
v -0.4 0.2 0.3
v -0.4 0.3 0.3
v -0.3 0 0.3
v -0.3 0.1 0.3
v -0.3 0.9 0.3
v -0.3 1 0.3
v -0.2 0 0.3
v -0.2 0.1 0.3
v -0.2 0.9 0.3
v -0.2 1 0.3
v 0.2 0 0.3
v 0.2 0.1 0.3
v 0.2 0.9 0.3
v 0.2 1 0.3
v 0.3 0 0.3
v 0.3 0.1 0.3
v 0.3 0.9 0.3
v 0.3 1 0.3
v 0.4 0.7 0.3
v 0.4 0.8 0.3
v 0.5 0.7 0.3
v 0.5 0.8 0.3
v -0.5 0.3 0.2
v -0.5 0.4 0.2
v -0.4 0.3 0.2
v -0.4 0.4 0.2
v -0.2 0 0.2
v -0.2 0.1 0.2
v -0.2 0.9 0.2
v -0.2 1 0.2
v -0.1 0 0.2
v -0.1 0.1 0.2
v -0.1 0.9 0.2
v -0.1 1 0.2
v 0.1 0 0.2
v 0.1 0.1 0.2
v 0.1 0.9 0.2
v 0.1 1 0.2
v 0.2 0 0.2
v 0.2 0.1 0.2
v 0.2 0.9 0.2
v 0.2 1 0.2
v 0.4 0.6 0.2
v 0.4 0.7 0.2
v 0.5 0.6 0.2
v 0.5 0.7 0.2
v -0.5 0.4 0.1
v -0.5 0.5 0.1
v -0.4 0.4 0.1
v -0.4 0.5 0.1
v -0.1 0 0.1
v -0.1 0.1 0.1
v -0.1 0.9 0.1
v -0.1 1 0.1
v 0.1 0 0.1
v 0.1 0.1 0.1
v 0.1 0.9 0.1
v 0.1 1 0.1
v 0.4 0.5 0.1
v 0.4 0.6 0.1
v 0.5 0.5 0.1
v 0.5 0.6 0.1
v -0.5 0.5 0
v -0.5 0.6 0
v -0.4 0.5 0
v -0.4 0.6 0
v 0.4 0.4 0
v 0.4 0.5 0
v 0.5 0.4 0
v 0.5 0.5 0
v -0.5 0.6 -0.1
v -0.5 0.7 -0.1
v -0.4 0.6 -0.1
v -0.4 0.7 -0.1
v -0.2 0 -0.1
v -0.2 0.1 -0.1
v -0.2 0.9 -0.1
v -0.2 1 -0.1
v -0.1 0 -0.1
v -0.1 0.1 -0.1
v -0.1 0.9 -0.1
v -0.1 1 -0.1
v 0.1 0 -0.1
v 0.1 0.1 -0.1
v 0.1 0.9 -0.1
v 0.1 1 -0.1
v 0.2 0 -0.1
v 0.2 0.1 -0.1
v 0.2 0.9 -0.1
v 0.2 1 -0.1
v 0.4 0.3 -0.1
v 0.4 0.4 -0.1
v 0.5 0.3 -0.1
v 0.5 0.4 -0.1
v -0.5 0.7 -0.2
v -0.5 0.8 -0.2
v -0.4 0.7 -0.2
v -0.4 0.8 -0.2
v -0.3 0 -0.2
v -0.3 0.1 -0.2
v -0.3 0.9 -0.2
v -0.3 1 -0.2
v -0.2 0 -0.2
v -0.2 0.1 -0.2
v -0.2 0.9 -0.2
v -0.2 1 -0.2
v 0.2 0 -0.2
v 0.2 0.1 -0.2
v 0.2 0.9 -0.2
v 0.2 1 -0.2
v 0.3 0 -0.2
v 0.3 0.1 -0.2
v 0.3 0.9 -0.2
v 0.3 1 -0.2
v 0.4 0.2 -0.2
v 0.4 0.3 -0.2
v 0.5 0.2 -0.2
v 0.5 0.3 -0.2
v -0.5 0.8 -0.3
v -0.5 0.9 -0.3
v -0.4 0 -0.3
v -0.4 0.1 -0.3
v -0.4 0.8 -0.3
v -0.4 0.9 -0.3
v -0.4 1 -0.3
v -0.3 0 -0.3
v -0.3 0.1 -0.3
v -0.3 0.9 -0.3
v -0.3 1 -0.3
v 0.3 0 -0.3
v 0.3 0.1 -0.3
v 0.3 0.9 -0.3
v 0.3 1 -0.3
v 0.4 0 -0.3
v 0.4 0.1 -0.3
v 0.4 0.2 -0.3
v 0.4 0.9 -0.3
v 0.4 1 -0.3
v 0.5 0.1 -0.3
v 0.5 0.2 -0.3
v -0.5 0.1 -0.4
v -0.5 0.8 -0.4
v -0.4 0.1 -0.4
v -0.4 0.8 -0.4
v -0.3 0 -0.4
v -0.3 0.1 -0.4
v -0.3 0.9 -0.4
v -0.3 1 -0.4
v 0.3 0 -0.4
v 0.3 0.1 -0.4
v 0.3 0.9 -0.4
v 0.3 1 -0.4
v 0.4 0.2 -0.4
v 0.4 0.9 -0.4
v 0.5 0.2 -0.4
v 0.5 0.9 -0.4
v -0.5 0.2 0.4
v -0.5 0.9 0.4
v -0.4 0.2 0.4
v -0.4 0.9 0.4
v -0.3 0 0.4
v -0.3 0.1 0.4
v -0.3 0.9 0.4
v -0.3 1 0.4
v 0.3 0 0.4
v 0.3 0.1 0.4
v 0.3 0.9 0.4
v 0.3 1 0.4
v 0.4 0.1 0.4
v 0.4 0.8 0.4
v 0.5 0.1 0.4
v 0.5 0.8 0.4
v -0.5 0.1 0.3
v -0.5 0.2 0.3
v -0.4 0 0.3
v -0.4 0.1 0.3
v -0.4 0.2 0.3
v -0.4 0.9 0.3
v -0.4 1 0.3
v -0.3 0 0.3
v -0.3 0.1 0.3
v -0.3 0.9 0.3
v -0.3 1 0.3
v 0.3 0 0.3
v 0.3 0.1 0.3
v 0.3 0.9 0.3
v 0.3 1 0.3
v 0.4 0 0.3
v 0.4 0.1 0.3
v 0.4 0.8 0.3
v 0.4 0.9 0.3
v 0.4 1 0.3
v 0.5 0.8 0.3
v 0.5 0.9 0.3
v -0.5 0.2 0.2
v -0.5 0.3 0.2
v -0.4 0.2 0.2
v -0.4 0.3 0.2
v -0.3 0 0.2
v -0.3 0.1 0.2
v -0.3 0.9 0.2
v -0.3 1 0.2
v -0.2 0 0.2
v -0.2 0.1 0.2
v -0.2 0.9 0.2
v -0.2 1 0.2
v 0.2 0 0.2
v 0.2 0.1 0.2
v 0.2 0.9 0.2
v 0.2 1 0.2
v 0.3 0 0.2
v 0.3 0.1 0.2
v 0.3 0.9 0.2
v 0.3 1 0.2
v 0.4 0.7 0.2
v 0.4 0.8 0.2
v 0.5 0.7 0.2
v 0.5 0.8 0.2
v -0.5 0.3 0.1
v -0.5 0.4 0.1
v -0.4 0.3 0.1
v -0.4 0.4 0.1
v -0.2 0 0.1
v -0.2 0.1 0.1
v -0.2 0.9 0.1
v -0.2 1 0.1
v -0.1 0 0.1
v -0.1 0.1 0.1
v -0.1 0.9 0.1
v -0.1 1 0.1
v 0.1 0 0.1
v 0.1 0.1 0.1
v 0.1 0.9 0.1
v 0.1 1 0.1
v 0.2 0 0.1
v 0.2 0.1 0.1
v 0.2 0.9 0.1
v 0.2 1 0.1
v 0.4 0.6 0.1
v 0.4 0.7 0.1
v 0.5 0.6 0.1
v 0.5 0.7 0.1
v -0.5 0.4 0
v -0.5 0.5 0
v -0.4 0.4 0
v -0.4 0.5 0
v 0.4 0.5 0
v 0.4 0.6 0
v 0.5 0.5 0
v 0.5 0.6 0
v -0.5 0.5 -0.1
v -0.5 0.6 -0.1
v -0.4 0.5 -0.1
v -0.4 0.6 -0.1
v -0.1 0 -0.1
v -0.1 0.1 -0.1
v -0.1 0.9 -0.1
v -0.1 1 -0.1
v 0.1 0 -0.1
v 0.1 0.1 -0.1
v 0.1 0.9 -0.1
v 0.1 1 -0.1
v 0.4 0.4 -0.1
v 0.4 0.5 -0.1
v 0.5 0.4 -0.1
v 0.5 0.5 -0.1
v -0.5 0.6 -0.2
v -0.5 0.7 -0.2
v -0.4 0.6 -0.2
v -0.4 0.7 -0.2
v -0.2 0 -0.2
v -0.2 0.1 -0.2
v -0.2 0.9 -0.2
v -0.2 1 -0.2
v -0.1 0 -0.2
v -0.1 0.1 -0.2
v -0.1 0.9 -0.2
v -0.1 1 -0.2
v 0.1 0 -0.2
v 0.1 0.1 -0.2
v 0.1 0.9 -0.2
v 0.1 1 -0.2
v 0.2 0 -0.2
v 0.2 0.1 -0.2
v 0.2 0.9 -0.2
v 0.2 1 -0.2
v 0.4 0.3 -0.2
v 0.4 0.4 -0.2
v 0.5 0.3 -0.2
v 0.5 0.4 -0.2
v -0.5 0.7 -0.3
v -0.5 0.8 -0.3
v -0.4 0.7 -0.3
v -0.4 0.8 -0.3
v -0.3 0 -0.3
v -0.3 0.1 -0.3
v -0.3 0.9 -0.3
v -0.3 1 -0.3
v -0.2 0 -0.3
v -0.2 0.1 -0.3
v -0.2 0.9 -0.3
v -0.2 1 -0.3
v 0.2 0 -0.3
v 0.2 0.1 -0.3
v 0.2 0.9 -0.3
v 0.2 1 -0.3
v 0.3 0 -0.3
v 0.3 0.1 -0.3
v 0.3 0.9 -0.3
v 0.3 1 -0.3
v 0.4 0.2 -0.3
v 0.4 0.3 -0.3
v 0.5 0.2 -0.3
v 0.5 0.3 -0.3
v -0.4 0.1 -0.4
v -0.4 0.8 -0.4
v -0.3 0.7 -0.4
v -0.3 0.8 -0.4
v -0.3 0.9 -0.4
v -0.2 0.6 -0.4
v -0.2 0.7 -0.4
v -0.2 0.8 -0.4
v -0.1 0.5 -0.4
v -0.1 0.6 -0.4
v -0.1 0.7 -0.4
v 0 0.4 -0.4
v 0 0.5 -0.4
v 0 0.6 -0.4
v 0.1 0.3 -0.4
v 0.1 0.4 -0.4
v 0.1 0.5 -0.4
v 0.2 0.2 -0.4
v 0.2 0.3 -0.4
v 0.2 0.4 -0.4
v 0.3 0.1 -0.4
v 0.3 0.2 -0.4
v 0.3 0.3 -0.4
v 0.4 0.2 -0.4
v 0.4 0.9 -0.4
v -0.5 0 -0.5
v -0.5 1 -0.5
v -0.4 0.1 -0.5
v -0.4 0.8 -0.5
v -0.3 0.7 -0.5
v -0.3 0.8 -0.5
v -0.3 0.9 -0.5
v -0.2 0.6 -0.5
v -0.2 0.7 -0.5
v -0.2 0.8 -0.5
v -0.1 0.5 -0.5
v -0.1 0.6 -0.5
v -0.1 0.7 -0.5
v 0 0.4 -0.5
v 0 0.5 -0.5
v 0 0.6 -0.5
v 0.1 0.3 -0.5
v 0.1 0.4 -0.5
v 0.1 0.5 -0.5
v 0.2 0.2 -0.5
v 0.2 0.3 -0.5
v 0.2 0.4 -0.5
v 0.3 0.1 -0.5
v 0.3 0.2 -0.5
v 0.3 0.3 -0.5
v 0.4 0.2 -0.5
v 0.4 0.9 -0.5
v 0.5 0 -0.5
v 0.5 1 -0.5
v -0.5 0 0.5
v 0.5 0 0.5
v -0.3 0 0.4
v 0.3 0 0.4
v -0.4 0 0.3
v -0.3 0 0.3
v -0.2 0 0.3
v 0.2 0 0.3
v 0.3 0 0.3
v 0.4 0 0.3
v -0.3 0 0.2
v -0.2 0 0.2
v -0.1 0 0.2
v 0.1 0 0.2
v 0.2 0 0.2
v 0.3 0 0.2
v -0.2 0 0.1
v -0.1 0 0.1
v 0.1 0 0.1
v 0.2 0 0.1
v -0.2 0 -0.1
v -0.1 0 -0.1
v 0.1 0 -0.1
v 0.2 0 -0.1
v -0.3 0 -0.2
v -0.2 0 -0.2
v -0.1 0 -0.2
v 0.1 0 -0.2
v 0.2 0 -0.2
v 0.3 0 -0.2
v -0.4 0 -0.3
v -0.3 0 -0.3
v -0.2 0 -0.3
v 0.2 0 -0.3
v 0.3 0 -0.3
v 0.4 0 -0.3
v -0.3 0 -0.4
v 0.3 0 -0.4
v -0.5 0 -0.5
v 0.5 0 -0.5
v -0.3 0.1 0.4
v 0.3 0.1 0.4
v -0.4 0.1 0.3
v -0.3 0.1 0.3
v -0.2 0.1 0.3
v 0.2 0.1 0.3
v 0.3 0.1 0.3
v 0.4 0.1 0.3
v -0.3 0.1 0.2
v -0.2 0.1 0.2
v -0.1 0.1 0.2
v 0.1 0.1 0.2
v 0.2 0.1 0.2
v 0.3 0.1 0.2
v -0.2 0.1 0.1
v -0.1 0.1 0.1
v 0.1 0.1 0.1
v 0.2 0.1 0.1
v -0.2 0.1 -0.1
v -0.1 0.1 -0.1
v 0.1 0.1 -0.1
v 0.2 0.1 -0.1
v -0.3 0.1 -0.2
v -0.2 0.1 -0.2
v -0.1 0.1 -0.2
v 0.1 0.1 -0.2
v 0.2 0.1 -0.2
v 0.3 0.1 -0.2
v -0.4 0.1 -0.3
v -0.3 0.1 -0.3
v -0.2 0.1 -0.3
v 0.2 0.1 -0.3
v 0.3 0.1 -0.3
v 0.4 0.1 -0.3
v -0.3 0.1 -0.4
v 0.3 0.1 -0.4
v -0.3 0.2 0.5
v -0.2 0.2 0.5
v -0.3 0.2 0.4
v -0.2 0.2 0.4
v -0.5 0.2 0.3
v -0.4 0.2 0.3
v -0.5 0.2 0.2
v -0.4 0.2 0.2
v 0.4 0.2 -0.2
v 0.5 0.2 -0.2
v 0.4 0.2 -0.3
v 0.5 0.2 -0.3
v 0.2 0.2 -0.4
v 0.3 0.2 -0.4
v 0.2 0.2 -0.5
v 0.3 0.2 -0.5
v -0.2 0.3 0.5
v -0.1 0.3 0.5
v -0.2 0.3 0.4
v -0.1 0.3 0.4
v -0.5 0.3 0.2
v -0.4 0.3 0.2
v -0.5 0.3 0.1
v -0.4 0.3 0.1
v 0.4 0.3 -0.1
v 0.5 0.3 -0.1
v 0.4 0.3 -0.2
v 0.5 0.3 -0.2
v 0.1 0.3 -0.4
v 0.2 0.3 -0.4
v 0.1 0.3 -0.5
v 0.2 0.3 -0.5
v -0.1 0.4 0.5
v 0 0.4 0.5
v -0.1 0.4 0.4
v 0 0.4 0.4
v -0.5 0.4 0.1
v -0.4 0.4 0.1
v -0.5 0.4 0
v -0.4 0.4 0
v 0.4 0.4 0
v 0.5 0.4 0
v 0.4 0.4 -0.1
v 0.5 0.4 -0.1
v 0 0.4 -0.4
v 0.1 0.4 -0.4
v 0 0.4 -0.5
v 0.1 0.4 -0.5
v 0 0.5 0.5
v 0.1 0.5 0.5
v 0 0.5 0.4
v 0.1 0.5 0.4
v 0.4 0.5 0.1
v 0.5 0.5 0.1
v -0.5 0.5 0
v -0.4 0.5 0
v 0.4 0.5 0
v 0.5 0.5 0
v -0.5 0.5 -0.1
v -0.4 0.5 -0.1
v -0.1 0.5 -0.4
v 0 0.5 -0.4
v -0.1 0.5 -0.5
v 0 0.5 -0.5
v 0.1 0.6 0.5
v 0.2 0.6 0.5
v 0.1 0.6 0.4
v 0.2 0.6 0.4
v 0.4 0.6 0.2
v 0.5 0.6 0.2
v 0.4 0.6 0.1
v 0.5 0.6 0.1
v -0.5 0.6 -0.1
v -0.4 0.6 -0.1
v -0.5 0.6 -0.2
v -0.4 0.6 -0.2
v -0.2 0.6 -0.4
v -0.1 0.6 -0.4
v -0.2 0.6 -0.5
v -0.1 0.6 -0.5
v 0.2 0.7 0.5
v 0.3 0.7 0.5
v 0.2 0.7 0.4
v 0.3 0.7 0.4
v 0.4 0.7 0.3
v 0.5 0.7 0.3
v 0.4 0.7 0.2
v 0.5 0.7 0.2
v -0.5 0.7 -0.2
v -0.4 0.7 -0.2
v -0.5 0.7 -0.3
v -0.4 0.7 -0.3
v -0.3 0.7 -0.4
v -0.2 0.7 -0.4
v -0.3 0.7 -0.5
v -0.2 0.7 -0.5
v 0.3 0.8 0.5
v 0.4 0.8 0.5
v 0.3 0.8 0.4
v 0.4 0.8 0.4
v 0.5 0.8 0.4
v 0.4 0.8 0.3
v 0.5 0.8 0.3
v -0.5 0.8 -0.3
v -0.4 0.8 -0.3
v -0.5 0.8 -0.4
v -0.4 0.8 -0.4
v -0.3 0.8 -0.4
v -0.4 0.8 -0.5
v -0.3 0.8 -0.5
v -0.4 0.9 0.5
v 0.3 0.9 0.5
v -0.5 0.9 0.4
v -0.4 0.9 0.4
v 0.3 0.9 0.4
v 0.4 0.9 0.3
v 0.5 0.9 0.3
v -0.5 0.9 -0.3
v -0.4 0.9 -0.3
v -0.3 0.9 -0.4
v 0.4 0.9 -0.4
v 0.5 0.9 -0.4
v -0.3 0.9 -0.5
v 0.4 0.9 -0.5
v -0.3 0.1 0.5
v 0.4 0.1 0.5
v -0.3 0.1 0.4
v 0.4 0.1 0.4
v 0.5 0.1 0.4
v -0.5 0.1 0.3
v -0.4 0.1 0.3
v 0.4 0.1 -0.3
v 0.5 0.1 -0.3
v -0.5 0.1 -0.4
v -0.4 0.1 -0.4
v 0.3 0.1 -0.4
v -0.4 0.1 -0.5
v 0.3 0.1 -0.5
v -0.4 0.2 0.5
v -0.3 0.2 0.5
v -0.5 0.2 0.4
v -0.4 0.2 0.4
v -0.3 0.2 0.4
v -0.5 0.2 0.3
v -0.4 0.2 0.3
v 0.4 0.2 -0.3
v 0.5 0.2 -0.3
v 0.3 0.2 -0.4
v 0.4 0.2 -0.4
v 0.5 0.2 -0.4
v 0.3 0.2 -0.5
v 0.4 0.2 -0.5
v -0.3 0.3 0.5
v -0.2 0.3 0.5
v -0.3 0.3 0.4
v -0.2 0.3 0.4
v -0.5 0.3 0.3
v -0.4 0.3 0.3
v -0.5 0.3 0.2
v -0.4 0.3 0.2
v 0.4 0.3 -0.2
v 0.5 0.3 -0.2
v 0.4 0.3 -0.3
v 0.5 0.3 -0.3
v 0.2 0.3 -0.4
v 0.3 0.3 -0.4
v 0.2 0.3 -0.5
v 0.3 0.3 -0.5
v -0.2 0.4 0.5
v -0.1 0.4 0.5
v -0.2 0.4 0.4
v -0.1 0.4 0.4
v -0.5 0.4 0.2
v -0.4 0.4 0.2
v -0.5 0.4 0.1
v -0.4 0.4 0.1
v 0.4 0.4 -0.1
v 0.5 0.4 -0.1
v 0.4 0.4 -0.2
v 0.5 0.4 -0.2
v 0.1 0.4 -0.4
v 0.2 0.4 -0.4
v 0.1 0.4 -0.5
v 0.2 0.4 -0.5
v -0.1 0.5 0.5
v 0 0.5 0.5
v -0.1 0.5 0.4
v 0 0.5 0.4
v -0.5 0.5 0.1
v -0.4 0.5 0.1
v -0.5 0.5 0
v -0.4 0.5 0
v 0.4 0.5 0
v 0.5 0.5 0
v 0.4 0.5 -0.1
v 0.5 0.5 -0.1
v 0 0.5 -0.4
v 0.1 0.5 -0.4
v 0 0.5 -0.5
v 0.1 0.5 -0.5
v 0 0.6 0.5
v 0.1 0.6 0.5
v 0 0.6 0.4
v 0.1 0.6 0.4
v 0.4 0.6 0.1
v 0.5 0.6 0.1
v -0.5 0.6 0
v -0.4 0.6 0
v 0.4 0.6 0
v 0.5 0.6 0
v -0.5 0.6 -0.1
v -0.4 0.6 -0.1
v -0.1 0.6 -0.4
v 0 0.6 -0.4
v -0.1 0.6 -0.5
v 0 0.6 -0.5
v 0.1 0.7 0.5
v 0.2 0.7 0.5
v 0.1 0.7 0.4
v 0.2 0.7 0.4
v 0.4 0.7 0.2
v 0.5 0.7 0.2
v 0.4 0.7 0.1
v 0.5 0.7 0.1
v -0.5 0.7 -0.1
v -0.4 0.7 -0.1
v -0.5 0.7 -0.2
v -0.4 0.7 -0.2
v -0.2 0.7 -0.4
v -0.1 0.7 -0.4
v -0.2 0.7 -0.5
v -0.1 0.7 -0.5
v 0.2 0.8 0.5
v 0.3 0.8 0.5
v 0.2 0.8 0.4
v 0.3 0.8 0.4
v 0.4 0.8 0.3
v 0.5 0.8 0.3
v 0.4 0.8 0.2
v 0.5 0.8 0.2
v -0.5 0.8 -0.2
v -0.4 0.8 -0.2
v -0.5 0.8 -0.3
v -0.4 0.8 -0.3
v -0.3 0.8 -0.4
v -0.2 0.8 -0.4
v -0.3 0.8 -0.5
v -0.2 0.8 -0.5
v -0.3 0.9 0.4
v 0.3 0.9 0.4
v -0.4 0.9 0.3
v -0.3 0.9 0.3
v -0.2 0.9 0.3
v 0.2 0.9 0.3
v 0.3 0.9 0.3
v 0.4 0.9 0.3
v -0.3 0.9 0.2
v -0.2 0.9 0.2
v -0.1 0.9 0.2
v 0.1 0.9 0.2
v 0.2 0.9 0.2
v 0.3 0.9 0.2
v -0.2 0.9 0.1
v -0.1 0.9 0.1
v 0.1 0.9 0.1
v 0.2 0.9 0.1
v -0.2 0.9 -0.1
v -0.1 0.9 -0.1
v 0.1 0.9 -0.1
v 0.2 0.9 -0.1
v -0.3 0.9 -0.2
v -0.2 0.9 -0.2
v -0.1 0.9 -0.2
v 0.1 0.9 -0.2
v 0.2 0.9 -0.2
v 0.3 0.9 -0.2
v -0.4 0.9 -0.3
v -0.3 0.9 -0.3
v -0.2 0.9 -0.3
v 0.2 0.9 -0.3
v 0.3 0.9 -0.3
v 0.4 0.9 -0.3
v -0.3 0.9 -0.4
v 0.3 0.9 -0.4
v -0.5 1 0.5
v 0.5 1 0.5
v -0.3 1 0.4
v 0.3 1 0.4
v -0.4 1 0.3
v -0.3 1 0.3
v -0.2 1 0.3
v 0.2 1 0.3
v 0.3 1 0.3
v 0.4 1 0.3
v -0.3 1 0.2
v -0.2 1 0.2
v -0.1 1 0.2
v 0.1 1 0.2
v 0.2 1 0.2
v 0.3 1 0.2
v -0.2 1 0.1
v -0.1 1 0.1
v 0.1 1 0.1
v 0.2 1 0.1
v -0.2 1 -0.1
v -0.1 1 -0.1
v 0.1 1 -0.1
v 0.2 1 -0.1
v -0.3 1 -0.2
v -0.2 1 -0.2
v -0.1 1 -0.2
v 0.1 1 -0.2
v 0.2 1 -0.2
v 0.3 1 -0.2
v -0.4 1 -0.3
v -0.3 1 -0.3
v -0.2 1 -0.3
v 0.2 1 -0.3
v 0.3 1 -0.3
v 0.4 1 -0.3
v -0.3 1 -0.4
v 0.3 1 -0.4
v -0.5 1 -0.5
v 0.5 1 -0.5

# faces
f 3/2/1 2/2/1 1/2/1
f 4/2/1 2/2/1 3/2/1
f 5/2/1 3/2/1 1/2/1
f 6/2/1 3/2/1 5/2/1
f 8/2/1 7/2/1 6/2/1
f 9/2/1 7/2/1 8/2/1
f 11/2/1 10/2/1 9/2/1
f 12/2/1 10/2/1 11/2/1
f 14/2/1 13/2/1 12/2/1
f 15/2/1 13/2/1 14/2/1
f 17/2/1 16/2/1 15/2/1
f 18/2/1 16/2/1 17/2/1
f 20/2/1 19/2/1 18/2/1
f 21/2/1 19/2/1 20/2/1
f 23/2/1 22/2/1 21/2/1
f 24/2/1 22/2/1 23/2/1
f 25/2/1 2/2/1 4/2/1
f 26/2/1 5/2/1 1/2/1
f 27/2/1 25/2/1 24/2/1
f 28/2/1 26/2/1 1/2/1
f 28/2/1 27/2/1 26/2/1
f 29/2/1 25/2/1 27/2/1
f 29/2/1 27/2/1 28/2/1
f 29/2/1 2/2/1 25/2/1
f 33/1/1 31/1/1 30/1/1
f 34/1/1 31/1/1 33/1/1
f 35/1/1 33/1/1 32/1/1
f 36/1/1 31/1/1 34/1/1
f 37/1/1 31/1/1 36/1/1
f 38/1/1 36/1/1 35/1/1
f 39/1/1 31/1/1 37/1/1
f 40/1/1 31/1/1 39/1/1
f 41/1/1 39/1/1 38/1/1
f 42/1/1 31/1/1 40/1/1
f 43/1/1 31/1/1 42/1/1
f 44/1/1 42/1/1 41/1/1
f 45/1/1 31/1/1 43/1/1
f 46/1/1 31/1/1 45/1/1
f 47/1/1 45/1/1 44/1/1
f 48/1/1 31/1/1 46/1/1
f 49/1/1 31/1/1 48/1/1
f 50/1/1 48/1/1 47/1/1
f 51/1/1 31/1/1 49/1/1
f 52/1/1 31/1/1 51/1/1
f 53/1/1 35/1/1 32/1/1
f 53/1/1 38/1/1 35/1/1
f 53/1/1 51/1/1 50/1/1
f 53/1/1 41/1/1 38/1/1
f 53/1/1 50/1/1 47/1/1
f 53/1/1 44/1/1 41/1/1
f 53/1/1 47/1/1 44/1/1
f 54/1/1 51/1/1 53/1/1
f 59/2/1 56/2/1 55/2/1
f 60/2/1 56/2/1 59/2/1
f 61/2/1 58/2/1 57/2/1
f 62/2/1 58/2/1 61/2/1
f 65/2/1 64/2/1 63/2/1
f 66/2/1 64/2/1 65/2/1
f 69/2/1 68/2/1 67/2/1
f 70/2/1 68/2/1 69/2/1
f 75/2/1 72/2/1 71/2/1
f 76/2/1 72/2/1 75/2/1
f 77/2/1 74/2/1 73/2/1
f 78/2/1 74/2/1 77/2/1
f 83/2/1 80/2/1 79/2/1
f 84/2/1 80/2/1 83/2/1
f 85/2/1 82/2/1 81/2/1
f 86/2/1 82/2/1 85/2/1
f 89/2/1 88/2/1 87/2/1
f 90/2/1 88/2/1 89/2/1
f 93/2/1 92/2/1 91/2/1
f 94/2/1 92/2/1 93/2/1
f 99/2/1 96/2/1 95/2/1
f 100/2/1 96/2/1 99/2/1
f 101/2/1 98/2/1 97/2/1
f 102/2/1 98/2/1 101/2/1
f 105/2/1 104/2/1 103/2/1
f 106/2/1 104/2/1 105/2/1
f 109/2/1 108/2/1 107/2/1
f 110/2/1 108/2/1 109/2/1
f 113/2/1 112/2/1 111/2/1
f 114/2/1 112/2/1 113/2/1
f 117/2/1 116/2/1 115/2/1
f 118/2/1 116/2/1 117/2/1
f 123/2/1 120/2/1 119/2/1
f 124/2/1 120/2/1 123/2/1
f 125/2/1 122/2/1 121/2/1
f 126/2/1 122/2/1 125/2/1
f 131/2/1 128/2/1 127/2/1
f 132/2/1 128/2/1 131/2/1
f 133/2/1 130/2/1 129/2/1
f 134/2/1 130/2/1 133/2/1
f 137/2/1 136/2/1 135/2/1
f 138/2/1 136/2/1 137/2/1
f 141/2/1 140/2/1 139/2/1
f 142/2/1 140/2/1 141/2/1
f 147/2/1 144/2/1 143/2/1
f 148/2/1 144/2/1 147/2/1
f 149/2/1 146/2/1 145/2/1
f 150/2/1 146/2/1 149/2/1
f 155/2/1 152/2/1 151/2/1
f 156/2/1 152/2/1 155/2/1
f 157/2/1 154/2/1 153/2/1
f 158/2/1 154/2/1 157/2/1
f 161/2/1 160/2/1 159/2/1
f 162/2/1 160/2/1 161/2/1
f 165/2/1 164/2/1 163/2/1
f 166/2/1 164/2/1 165/2/1
f 171/2/1 168/2/1 167/2/1
f 172/2/1 168/2/1 171/2/1
f 173/2/1 170/2/1 169/2/1
f 174/2/1 170/2/1 173/2/1
f 179/2/1 176/2/1 175/2/1
f 180/2/1 176/2/1 179/2/1
f 181/2/1 178/2/1 177/2/1
f 182/2/1 178/2/1 181/2/1
f 184/2/1 183/2/1 182/2/1
f 185/2/1 183/2/1 184/2/1
f 188/2/1 187/2/1 186/2/1
f 189/2/1 187/2/1 188/2/1
f 193/2/1 190/2/1 189/2/1
f 194/2/1 190/2/1 193/2/1
f 195/2/1 192/2/1 191/2/1
f 196/2/1 192/2/1 195/2/1
f 201/2/1 198/2/1 197/2/1
f 202/2/1 198/2/1 201/2/1
f 205/2/1 200/2/1 199/2/1
f 206/2/1 200/2/1 205/2/1
f 209/2/1 204/2/1 203/2/1
f 210/2/1 204/2/1 209/2/1
f 211/2/1 208/2/1 207/2/1
f 212/2/1 208/2/1 211/2/1
f 213/2/2 214/2/2 215/2/2
f 215/2/2 214/2/2 216/2/2
f 217/2/2 218/2/2 221/2/2
f 221/2/2 218/2/2 222/2/2
f 219/2/2 220/2/2 223/2/2
f 223/2/2 220/2/2 224/2/2
f 225/2/2 226/2/2 227/2/2
f 227/2/2 226/2/2 228/2/2
f 229/2/2 230/2/2 234/2/2
f 234/2/2 230/2/2 235/2/2
f 231/2/2 232/2/2 236/2/2
f 236/2/2 232/2/2 237/2/2
f 233/2/2 234/2/2 238/2/2
f 238/2/2 234/2/2 239/2/2
f 240/2/2 241/2/2 245/2/2
f 245/2/2 241/2/2 246/2/2
f 242/2/2 243/2/2 247/2/2
f 247/2/2 243/2/2 248/2/2
f 244/2/2 245/2/2 249/2/2
f 249/2/2 245/2/2 250/2/2
f 251/2/2 252/2/2 255/2/2
f 255/2/2 252/2/2 256/2/2
f 253/2/2 254/2/2 257/2/2
f 257/2/2 254/2/2 258/2/2
f 259/2/2 260/2/2 261/2/2
f 261/2/2 260/2/2 262/2/2
f 263/2/2 264/2/2 265/2/2
f 265/2/2 264/2/2 266/2/2
f 267/2/2 268/2/2 271/2/2
f 271/2/2 268/2/2 272/2/2
f 269/2/2 270/2/2 273/2/2
f 273/2/2 270/2/2 274/2/2
f 275/2/2 276/2/2 279/2/2
f 279/2/2 276/2/2 280/2/2
f 277/2/2 278/2/2 281/2/2
f 281/2/2 278/2/2 282/2/2
f 283/2/2 284/2/2 285/2/2
f 285/2/2 284/2/2 286/2/2
f 287/2/2 288/2/2 289/2/2
f 289/2/2 288/2/2 290/2/2
f 291/2/2 292/2/2 295/2/2
f 295/2/2 292/2/2 296/2/2
f 293/2/2 294/2/2 297/2/2
f 297/2/2 294/2/2 298/2/2
f 299/2/2 300/2/2 301/2/2
f 301/2/2 300/2/2 302/2/2
f 303/2/2 304/2/2 305/2/2
f 305/2/2 304/2/2 306/2/2
f 307/2/2 308/2/2 309/2/2
f 309/2/2 308/2/2 310/2/2
f 311/2/2 312/2/2 315/2/2
f 315/2/2 312/2/2 316/2/2
f 313/2/2 314/2/2 317/2/2
f 317/2/2 314/2/2 318/2/2
f 319/2/2 320/2/2 321/2/2
f 321/2/2 320/2/2 322/2/2
f 323/2/2 324/2/2 327/2/2
f 327/2/2 324/2/2 328/2/2
f 325/2/2 326/2/2 329/2/2
f 329/2/2 326/2/2 330/2/2
f 331/2/2 332/2/2 333/2/2
f 333/2/2 332/2/2 334/2/2
f 335/2/2 336/2/2 337/2/2
f 337/2/2 336/2/2 338/2/2
f 339/2/2 340/2/2 343/2/2
f 343/2/2 340/2/2 344/2/2
f 341/2/2 342/2/2 345/2/2
f 345/2/2 342/2/2 346/2/2
f 347/2/2 348/2/2 351/2/2
f 351/2/2 348/2/2 352/2/2
f 349/2/2 350/2/2 353/2/2
f 353/2/2 350/2/2 354/2/2
f 355/2/2 356/2/2 357/2/2
f 357/2/2 356/2/2 358/2/2
f 359/2/2 360/2/2 361/2/2
f 361/2/2 360/2/2 362/2/2
f 363/2/2 364/2/2 367/2/2
f 367/2/2 364/2/2 368/2/2
f 365/2/2 366/2/2 369/2/2
f 369/2/2 366/2/2 370/2/2
f 371/1/2 372/1/2 373/1/2
f 373/1/2 372/1/2 374/1/2
f 371/1/2 373/1/2 376/1/2
f 376/1/2 373/1/2 377/1/2
f 374/1/2 375/1/2 378/1/2
f 371/1/2 376/1/2 379/1/2
f 379/1/2 376/1/2 380/1/2
f 377/1/2 378/1/2 381/1/2
f 371/1/2 379/1/2 382/1/2
f 382/1/2 379/1/2 383/1/2
f 380/1/2 381/1/2 384/1/2
f 371/1/2 382/1/2 385/1/2
f 385/1/2 382/1/2 386/1/2
f 383/1/2 384/1/2 387/1/2
f 371/1/2 385/1/2 388/1/2
f 388/1/2 385/1/2 389/1/2
f 386/1/2 387/1/2 390/1/2
f 371/1/2 388/1/2 391/1/2
f 391/1/2 388/1/2 392/1/2
f 389/1/2 390/1/2 393/1/2
f 392/1/2 393/1/2 394/1/2
f 393/1/2 390/1/2 395/1/2
f 394/1/2 393/1/2 395/1/2
f 378/1/2 375/1/2 395/1/2
f 381/1/2 378/1/2 395/1/2
f 384/1/2 381/1/2 395/1/2
f 387/1/2 384/1/2 395/1/2
f 390/1/2 387/1/2 395/1/2
f 396/2/2 397/2/2 398/2/2
f 398/2/2 397/2/2 399/2/2
f 399/2/2 397/2/2 401/2/2
f 401/2/2 397/2/2 402/2/2
f 400/2/2 401/2/2 404/2/2
f 404/2/2 401/2/2 405/2/2
f 403/2/2 404/2/2 407/2/2
f 407/2/2 404/2/2 408/2/2
f 406/2/2 407/2/2 410/2/2
f 410/2/2 407/2/2 411/2/2
f 409/2/2 410/2/2 413/2/2
f 413/2/2 410/2/2 414/2/2
f 412/2/2 413/2/2 416/2/2
f 416/2/2 413/2/2 417/2/2
f 396/2/2 398/2/2 418/2/2
f 415/2/2 416/2/2 419/2/2
f 419/2/2 416/2/2 420/2/2
f 418/2/2 419/2/2 421/2/2
f 402/2/2 397/2/2 422/2/2
f 418/2/2 421/2/2 423/2/2
f 421/2/2 422/2/2 423/2/2
f 396/2/2 418/2/2 423/2/2
f 422/2/2 397/2/2 424/2/2
f 423/2/2 422/2/2 424/2/2
f 427/2/3 426/2/3 425/2/3
f 428/2/3 426/2/3 427/2/3
f 429/2/3 427/2/3 425/2/3
f 430/2/3 427/2/3 429/2/3
f 432/2/3 431/2/3 430/2/3
f 433/2/3 431/2/3 432/2/3
f 435/2/3 434/2/3 433/2/3
f 436/2/3 434/2/3 435/2/3
f 438/2/3 437/2/3 436/2/3
f 439/2/3 437/2/3 438/2/3
f 441/2/3 440/2/3 439/2/3
f 442/2/3 440/2/3 441/2/3
f 444/2/3 443/2/3 442/2/3
f 445/2/3 443/2/3 444/2/3
f 447/2/3 446/2/3 445/2/3
f 448/2/3 446/2/3 447/2/3
f 449/2/3 426/2/3 428/2/3
f 450/2/3 429/2/3 425/2/3
f 451/2/3 449/2/3 448/2/3
f 452/2/3 450/2/3 425/2/3
f 452/2/3 451/2/3 450/2/3
f 453/2/3 449/2/3 451/2/3
f 453/2/3 451/2/3 452/2/3
f 453/2/3 426/2/3 449/2/3
f 457/1/3 455/1/3 454/1/3
f 458/1/3 455/1/3 457/1/3
f 459/1/3 457/1/3 456/1/3
f 460/1/3 455/1/3 458/1/3
f 461/1/3 455/1/3 460/1/3
f 462/1/3 460/1/3 459/1/3
f 463/1/3 455/1/3 461/1/3
f 464/1/3 455/1/3 463/1/3
f 465/1/3 463/1/3 462/1/3
f 466/1/3 455/1/3 464/1/3
f 467/1/3 455/1/3 466/1/3
f 468/1/3 466/1/3 465/1/3
f 469/1/3 455/1/3 467/1/3
f 470/1/3 455/1/3 469/1/3
f 471/1/3 469/1/3 468/1/3
f 472/1/3 455/1/3 470/1/3
f 473/1/3 455/1/3 472/1/3
f 474/1/3 472/1/3 471/1/3
f 475/1/3 455/1/3 473/1/3
f 476/1/3 455/1/3 475/1/3
f 477/1/3 459/1/3 456/1/3
f 477/1/3 462/1/3 459/1/3
f 477/1/3 475/1/3 474/1/3
f 477/1/3 465/1/3 462/1/3
f 477/1/3 474/1/3 471/1/3
f 477/1/3 468/1/3 465/1/3
f 477/1/3 471/1/3 468/1/3
f 478/1/3 475/1/3 477/1/3
f 481/2/3 480/2/3 479/2/3
f 482/2/3 480/2/3 481/2/3
f 487/2/3 484/2/3 483/2/3
f 488/2/3 484/2/3 487/2/3
f 489/2/3 486/2/3 485/2/3
f 490/2/3 486/2/3 489/2/3
f 495/2/3 492/2/3 491/2/3
f 496/2/3 492/2/3 495/2/3
f 497/2/3 494/2/3 493/2/3
f 498/2/3 494/2/3 497/2/3
f 501/2/3 500/2/3 499/2/3
f 502/2/3 500/2/3 501/2/3
f 505/2/3 504/2/3 503/2/3
f 506/2/3 504/2/3 505/2/3
f 511/2/3 508/2/3 507/2/3
f 512/2/3 508/2/3 511/2/3
f 513/2/3 510/2/3 509/2/3
f 514/2/3 510/2/3 513/2/3
f 519/2/3 516/2/3 515/2/3
f 520/2/3 516/2/3 519/2/3
f 521/2/3 518/2/3 517/2/3
f 522/2/3 518/2/3 521/2/3
f 525/2/3 524/2/3 523/2/3
f 526/2/3 524/2/3 525/2/3
f 529/2/3 528/2/3 527/2/3
f 530/2/3 528/2/3 529/2/3
f 535/2/3 532/2/3 531/2/3
f 536/2/3 532/2/3 535/2/3
f 537/2/3 534/2/3 533/2/3
f 538/2/3 534/2/3 537/2/3
f 541/2/3 540/2/3 539/2/3
f 542/2/3 540/2/3 541/2/3
f 545/2/3 544/2/3 543/2/3
f 546/2/3 544/2/3 545/2/3
f 549/2/3 548/2/3 547/2/3
f 550/2/3 548/2/3 549/2/3
f 553/2/3 552/2/3 551/2/3
f 554/2/3 552/2/3 553/2/3
f 559/2/3 556/2/3 555/2/3
f 560/2/3 556/2/3 559/2/3
f 561/2/3 558/2/3 557/2/3
f 562/2/3 558/2/3 561/2/3
f 567/2/3 564/2/3 563/2/3
f 568/2/3 564/2/3 567/2/3
f 569/2/3 566/2/3 565/2/3
f 570/2/3 566/2/3 569/2/3
f 573/2/3 572/2/3 571/2/3
f 574/2/3 572/2/3 573/2/3
f 577/2/3 576/2/3 575/2/3
f 578/2/3 576/2/3 577/2/3
f 583/2/3 580/2/3 579/2/3
f 584/2/3 580/2/3 583/2/3
f 585/2/3 582/2/3 581/2/3
f 586/2/3 582/2/3 585/2/3
f 591/2/3 588/2/3 587/2/3
f 592/2/3 588/2/3 591/2/3
f 593/2/3 590/2/3 589/2/3
f 594/2/3 590/2/3 593/2/3
f 597/2/3 596/2/3 595/2/3
f 598/2/3 596/2/3 597/2/3
f 603/2/3 600/2/3 599/2/3
f 604/2/3 600/2/3 603/2/3
f 606/2/3 602/2/3 601/2/3
f 607/2/3 602/2/3 606/2/3
f 608/2/3 605/2/3 604/2/3
f 609/2/3 605/2/3 608/2/3
f 614/2/3 611/2/3 610/2/3
f 615/2/3 611/2/3 614/2/3
f 617/2/3 613/2/3 612/2/3
f 618/2/3 613/2/3 617/2/3
f 619/2/3 616/2/3 615/2/3
f 620/2/3 616/2/3 619/2/3
f 623/2/3 622/2/3 621/2/3
f 624/2/3 622/2/3 623/2/3
f 629/2/3 626/2/3 625/2/3
f 630/2/3 626/2/3 629/2/3
f 631/2/3 628/2/3 627/2/3
f 632/2/3 628/2/3 631/2/3
f 635/2/3 634/2/3 633/2/3
f 636/2/3 634/2/3 635/2/3
f 637/2/4 638/2/4 639/2/4
f 639/2/4 638/2/4 640/2/4
f 641/2/4 642/2/4 645/2/4
f 645/2/4 642/2/4 646/2/4
f 643/2/4 644/2/4 647/2/4
f 647/2/4 644/2/4 648/2/4
f 649/2/4 650/2/4 651/2/4
f 651/2/4 650/2/4 652/2/4
f 653/2/4 654/2/4 656/2/4
f 656/2/4 654/2/4 657/2/4
f 655/2/4 656/2/4 660/2/4
f 660/2/4 656/2/4 661/2/4
f 658/2/4 659/2/4 662/2/4
f 662/2/4 659/2/4 663/2/4
f 664/2/4 665/2/4 668/2/4
f 668/2/4 665/2/4 669/2/4
f 666/2/4 667/2/4 671/2/4
f 671/2/4 667/2/4 672/2/4
f 670/2/4 671/2/4 673/2/4
f 673/2/4 671/2/4 674/2/4
f 675/2/4 676/2/4 677/2/4
f 677/2/4 676/2/4 678/2/4
f 679/2/4 680/2/4 683/2/4
f 683/2/4 680/2/4 684/2/4
f 681/2/4 682/2/4 685/2/4
f 685/2/4 682/2/4 686/2/4
f 687/2/4 688/2/4 691/2/4
f 691/2/4 688/2/4 692/2/4
f 689/2/4 690/2/4 693/2/4
f 693/2/4 690/2/4 694/2/4
f 695/2/4 696/2/4 697/2/4
f 697/2/4 696/2/4 698/2/4
f 699/2/4 700/2/4 701/2/4
f 701/2/4 700/2/4 702/2/4
f 703/2/4 704/2/4 707/2/4
f 707/2/4 704/2/4 708/2/4
f 705/2/4 706/2/4 709/2/4
f 709/2/4 706/2/4 710/2/4
f 711/2/4 712/2/4 715/2/4
f 715/2/4 712/2/4 716/2/4
f 713/2/4 714/2/4 717/2/4
f 717/2/4 714/2/4 718/2/4
f 719/2/4 720/2/4 721/2/4
f 721/2/4 720/2/4 722/2/4
f 723/2/4 724/2/4 725/2/4
f 725/2/4 724/2/4 726/2/4
f 727/2/4 728/2/4 729/2/4
f 729/2/4 728/2/4 730/2/4
f 731/2/4 732/2/4 733/2/4
f 733/2/4 732/2/4 734/2/4
f 735/2/4 736/2/4 739/2/4
f 739/2/4 736/2/4 740/2/4
f 737/2/4 738/2/4 741/2/4
f 741/2/4 738/2/4 742/2/4
f 743/2/4 744/2/4 745/2/4
f 745/2/4 744/2/4 746/2/4
f 747/2/4 748/2/4 749/2/4
f 749/2/4 748/2/4 750/2/4
f 751/2/4 752/2/4 755/2/4
f 755/2/4 752/2/4 756/2/4
f 753/2/4 754/2/4 757/2/4
f 757/2/4 754/2/4 758/2/4
f 759/2/4 760/2/4 763/2/4
f 763/2/4 760/2/4 764/2/4
f 761/2/4 762/2/4 765/2/4
f 765/2/4 762/2/4 766/2/4
f 767/2/4 768/2/4 769/2/4
f 769/2/4 768/2/4 770/2/4
f 771/2/4 772/2/4 773/2/4
f 773/2/4 772/2/4 774/2/4
f 775/2/4 776/2/4 779/2/4
f 779/2/4 776/2/4 780/2/4
f 777/2/4 778/2/4 781/2/4
f 781/2/4 778/2/4 782/2/4
f 783/2/4 784/2/4 787/2/4
f 787/2/4 784/2/4 788/2/4
f 785/2/4 786/2/4 789/2/4
f 789/2/4 786/2/4 790/2/4
f 791/2/4 792/2/4 793/2/4
f 793/2/4 792/2/4 794/2/4
f 795/1/4 796/1/4 797/1/4
f 797/1/4 796/1/4 798/1/4
f 795/1/4 797/1/4 800/1/4
f 800/1/4 797/1/4 801/1/4
f 798/1/4 799/1/4 802/1/4
f 795/1/4 800/1/4 803/1/4
f 803/1/4 800/1/4 804/1/4
f 801/1/4 802/1/4 805/1/4
f 795/1/4 803/1/4 806/1/4
f 806/1/4 803/1/4 807/1/4
f 804/1/4 805/1/4 808/1/4
f 795/1/4 806/1/4 809/1/4
f 809/1/4 806/1/4 810/1/4
f 807/1/4 808/1/4 811/1/4
f 795/1/4 809/1/4 812/1/4
f 812/1/4 809/1/4 813/1/4
f 810/1/4 811/1/4 814/1/4
f 795/1/4 812/1/4 815/1/4
f 815/1/4 812/1/4 816/1/4
f 813/1/4 814/1/4 817/1/4
f 816/1/4 817/1/4 818/1/4
f 817/1/4 814/1/4 819/1/4
f 818/1/4 817/1/4 819/1/4
f 802/1/4 799/1/4 819/1/4
f 805/1/4 802/1/4 819/1/4
f 808/1/4 805/1/4 819/1/4
f 811/1/4 808/1/4 819/1/4
f 814/1/4 811/1/4 819/1/4
f 820/2/4 821/2/4 822/2/4
f 822/2/4 821/2/4 823/2/4
f 823/2/4 821/2/4 825/2/4
f 825/2/4 821/2/4 826/2/4
f 824/2/4 825/2/4 828/2/4
f 828/2/4 825/2/4 829/2/4
f 827/2/4 828/2/4 831/2/4
f 831/2/4 828/2/4 832/2/4
f 830/2/4 831/2/4 834/2/4
f 834/2/4 831/2/4 835/2/4
f 833/2/4 834/2/4 837/2/4
f 837/2/4 834/2/4 838/2/4
f 836/2/4 837/2/4 840/2/4
f 840/2/4 837/2/4 841/2/4
f 820/2/4 822/2/4 842/2/4
f 839/2/4 840/2/4 843/2/4
f 843/2/4 840/2/4 844/2/4
f 842/2/4 843/2/4 845/2/4
f 826/2/4 821/2/4 846/2/4
f 842/2/4 845/2/4 847/2/4
f 845/2/4 846/2/4 847/2/4
f 820/2/4 842/2/4 847/2/4
f 846/2/4 821/2/4 848/2/4
f 847/2/4 846/2/4 848/2/4
f 851/2/5 850/2/5 849/2/5
f 852/2/5 850/2/5 851/2/5
f 853/2/5 851/2/5 849/2/5
f 854/2/5 851/2/5 853/2/5
f 857/2/5 850/2/5 852/2/5
f 858/2/5 850/2/5 857/2/5
f 859/2/5 855/2/5 854/2/5
f 860/2/5 855/2/5 859/2/5
f 863/2/5 857/2/5 856/2/5
f 864/2/5 857/2/5 863/2/5
f 865/2/5 861/2/5 860/2/5
f 866/2/5 861/2/5 865/2/5
f 867/2/5 863/2/5 862/2/5
f 868/2/5 863/2/5 867/2/5
f 870/2/5 867/2/5 866/2/5
f 871/2/5 867/2/5 870/2/5
f 874/2/5 870/2/5 869/2/5
f 875/2/5 870/2/5 874/2/5
f 876/2/5 872/2/5 871/2/5
f 877/2/5 872/2/5 876/2/5
f 879/2/5 853/2/5 849/2/5
f 880/2/5 874/2/5 873/2/5
f 881/2/5 874/2/5 880/2/5
f 882/2/5 878/2/5 877/2/5
f 883/2/5 878/2/5 882/2/5
f 884/2/5 850/2/5 858/2/5
f 885/2/5 880/2/5 879/2/5
f 886/2/5 884/2/5 883/2/5
f 887/2/5 885/2/5 879/2/5
f 887/2/5 886/2/5 885/2/5
f 887/2/5 879/2/5 849/2/5
f 888/2/5 884/2/5 886/2/5
f 888/2/5 886/2/5 887/2/5
f 888/2/5 850/2/5 884/2/5
f 892/1/5 890/1/5 889/1/5
f 893/1/5 890/1/5 892/1/5
f 894/1/5 890/1/5 893/1/5
f 895/1/5 890/1/5 894/1/5
f 897/1/5 892/1/5 891/1/5
f 898/1/5 894/1/5 893/1/5
f 899/1/5 894/1/5 898/1/5
f 900/1/5 894/1/5 899/1/5
f 901/1/5 894/1/5 900/1/5
f 902/1/5 896/1/5 895/1/5
f 903/1/5 898/1/5 897/1/5
f 904/1/5 900/1/5 899/1/5
f 905/1/5 900/1/5 904/1/5
f 906/1/5 902/1/5 901/1/5
f 907/1/5 903/1/5 897/1/5
f 907/1/5 904/1/5 903/1/5
f 908/1/5 904/1/5 907/1/5
f 909/1/5 906/1/5 905/1/5
f 910/1/5 902/1/5 906/1/5
f 910/1/5 906/1/5 909/1/5
f 911/1/5 897/1/5 891/1/5
f 911/1/5 907/1/5 897/1/5
f 912/1/5 907/1/5 911/1/5
f 913/1/5 909/1/5 908/1/5
f 914/1/5 909/1/5 913/1/5
f 915/1/5 902/1/5 910/1/5
f 916/1/5 896/1/5 902/1/5
f 916/1/5 902/1/5 915/1/5
f 917/1/5 911/1/5 891/1/5
f 918/1/5 911/1/5 917/1/5
f 919/1/5 914/1/5 913/1/5
f 919/1/5 915/1/5 914/1/5
f 919/1/5 913/1/5 912/1/5
f 920/1/5 915/1/5 919/1/5
f 921/1/5 896/1/5 916/1/5
f 922/1/5 896/1/5 921/1/5
f 923/1/5 920/1/5 919/1/5
f 923/1/5 921/1/5 920/1/5
f 923/1/5 919/1/5 918/1/5
f 924/1/5 921/1/5 923/1/5
f 927/2/5 926/2/5 925/2/5
f 928/2/5 926/2/5 927/2/5
f 931/2/5 930/2/5 929/2/5
f 932/2/5 930/2/5 931/2/5
f 935/2/5 934/2/5 933/2/5
f 936/2/5 934/2/5 935/2/5
f 939/2/5 938/2/5 937/2/5
f 940/2/5 938/2/5 939/2/5
f 943/2/5 942/2/5 941/2/5
f 944/2/5 942/2/5 943/2/5
f 947/2/5 946/2/5 945/2/5
f 948/2/5 946/2/5 947/2/5
f 951/2/5 950/2/5 949/2/5
f 952/2/5 950/2/5 951/2/5
f 955/2/5 954/2/5 953/2/5
f 956/2/5 954/2/5 955/2/5
f 959/2/5 958/2/5 957/2/5
f 960/2/5 958/2/5 959/2/5
f 963/2/5 962/2/5 961/2/5
f 964/2/5 962/2/5 963/2/5
f 967/2/5 966/2/5 965/2/5
f 968/2/5 966/2/5 967/2/5
f 971/2/5 970/2/5 969/2/5
f 972/2/5 970/2/5 971/2/5
f 975/2/5 974/2/5 973/2/5
f 976/2/5 974/2/5 975/2/5
f 981/2/5 978/2/5 977/2/5
f 982/2/5 978/2/5 981/2/5
f 983/2/5 980/2/5 979/2/5
f 984/2/5 980/2/5 983/2/5
f 987/2/5 986/2/5 985/2/5
f 988/2/5 986/2/5 987/2/5
f 991/2/5 990/2/5 989/2/5
f 992/2/5 990/2/5 991/2/5
f 995/2/5 994/2/5 993/2/5
f 996/2/5 994/2/5 995/2/5
f 999/2/5 998/2/5 997/2/5
f 1000/2/5 998/2/5 999/2/5
f 1003/2/5 1002/2/5 1001/2/5
f 1004/2/5 1002/2/5 1003/2/5
f 1007/2/5 1006/2/5 1005/2/5
f 1008/2/5 1006/2/5 1007/2/5
f 1011/2/5 1010/2/5 1009/2/5
f 1012/2/5 1010/2/5 1011/2/5
f 1015/2/5 1014/2/5 1013/2/5
f 1016/2/5 1014/2/5 1015/2/5
f 1019/2/5 1018/2/5 1017/2/5
f 1020/2/5 1018/2/5 1019/2/5
f 1023/2/5 1022/2/5 1021/2/5
f 1024/2/5 1022/2/5 1023/2/5
f 1026/2/5 1025/2/5 1024/2/5
f 1027/2/5 1025/2/5 1026/2/5
f 1030/2/5 1029/2/5 1028/2/5
f 1031/2/5 1029/2/5 1030/2/5
f 1033/2/5 1032/2/5 1031/2/5
f 1034/2/5 1032/2/5 1033/2/5
f 1038/2/5 1036/2/5 1035/2/5
f 1039/2/5 1036/2/5 1038/2/5
f 1042/2/5 1038/2/5 1037/2/5
f 1043/2/5 1038/2/5 1042/2/5
f 1045/2/5 1041/2/5 1040/2/5
f 1046/2/5 1041/2/5 1045/2/5
f 1047/2/5 1045/2/5 1044/2/5
f 1048/2/5 1045/2/5 1047/2/5
f 1049/2/6 1050/2/6 1051/2/6
f 1051/2/6 1050/2/6 1052/2/6
f 1052/2/6 1053/2/6 1056/2/6
f 1056/2/6 1053/2/6 1057/2/6
f 1054/2/6 1055/2/6 1058/2/6
f 1058/2/6 1055/2/6 1059/2/6
f 1059/2/6 1060/2/6 1061/2/6
f 1061/2/6 1060/2/6 1062/2/6
f 1063/2/6 1064/2/6 1066/2/6
f 1066/2/6 1064/2/6 1067/2/6
f 1065/2/6 1066/2/6 1068/2/6
f 1068/2/6 1066/2/6 1069/2/6
f 1070/2/6 1071/2/6 1073/2/6
f 1073/2/6 1071/2/6 1074/2/6
f 1072/2/6 1073/2/6 1075/2/6
f 1075/2/6 1073/2/6 1076/2/6
f 1077/2/6 1078/2/6 1079/2/6
f 1079/2/6 1078/2/6 1080/2/6
f 1081/2/6 1082/2/6 1083/2/6
f 1083/2/6 1082/2/6 1084/2/6
f 1085/2/6 1086/2/6 1087/2/6
f 1087/2/6 1086/2/6 1088/2/6
f 1089/2/6 1090/2/6 1091/2/6
f 1091/2/6 1090/2/6 1092/2/6
f 1093/2/6 1094/2/6 1095/2/6
f 1095/2/6 1094/2/6 1096/2/6
f 1097/2/6 1098/2/6 1099/2/6
f 1099/2/6 1098/2/6 1100/2/6
f 1101/2/6 1102/2/6 1103/2/6
f 1103/2/6 1102/2/6 1104/2/6
f 1105/2/6 1106/2/6 1107/2/6
f 1107/2/6 1106/2/6 1108/2/6
f 1109/2/6 1110/2/6 1111/2/6
f 1111/2/6 1110/2/6 1112/2/6
f 1113/2/6 1114/2/6 1115/2/6
f 1115/2/6 1114/2/6 1116/2/6
f 1117/2/6 1118/2/6 1119/2/6
f 1119/2/6 1118/2/6 1120/2/6
f 1121/2/6 1122/2/6 1123/2/6
f 1123/2/6 1122/2/6 1124/2/6
f 1125/2/6 1126/2/6 1127/2/6
f 1127/2/6 1126/2/6 1128/2/6
f 1129/2/6 1130/2/6 1133/2/6
f 1133/2/6 1130/2/6 1134/2/6
f 1131/2/6 1132/2/6 1135/2/6
f 1135/2/6 1132/2/6 1136/2/6
f 1137/2/6 1138/2/6 1139/2/6
f 1139/2/6 1138/2/6 1140/2/6
f 1141/2/6 1142/2/6 1143/2/6
f 1143/2/6 1142/2/6 1144/2/6
f 1145/2/6 1146/2/6 1147/2/6
f 1147/2/6 1146/2/6 1148/2/6
f 1149/2/6 1150/2/6 1151/2/6
f 1151/2/6 1150/2/6 1152/2/6
f 1153/2/6 1154/2/6 1155/2/6
f 1155/2/6 1154/2/6 1156/2/6
f 1157/2/6 1158/2/6 1159/2/6
f 1159/2/6 1158/2/6 1160/2/6
f 1161/2/6 1162/2/6 1163/2/6
f 1163/2/6 1162/2/6 1164/2/6
f 1165/2/6 1166/2/6 1167/2/6
f 1167/2/6 1166/2/6 1168/2/6
f 1169/2/6 1170/2/6 1171/2/6
f 1171/2/6 1170/2/6 1172/2/6
f 1173/1/6 1174/1/6 1176/1/6
f 1176/1/6 1174/1/6 1177/1/6
f 1177/1/6 1174/1/6 1178/1/6
f 1178/1/6 1174/1/6 1179/1/6
f 1175/1/6 1176/1/6 1181/1/6
f 1177/1/6 1178/1/6 1182/1/6
f 1182/1/6 1178/1/6 1183/1/6
f 1183/1/6 1178/1/6 1184/1/6
f 1184/1/6 1178/1/6 1185/1/6
f 1179/1/6 1180/1/6 1186/1/6
f 1181/1/6 1182/1/6 1187/1/6
f 1183/1/6 1184/1/6 1188/1/6
f 1188/1/6 1184/1/6 1189/1/6
f 1185/1/6 1186/1/6 1190/1/6
f 1181/1/6 1187/1/6 1191/1/6
f 1187/1/6 1188/1/6 1191/1/6
f 1191/1/6 1188/1/6 1192/1/6
f 1189/1/6 1190/1/6 1193/1/6
f 1190/1/6 1186/1/6 1194/1/6
f 1193/1/6 1190/1/6 1194/1/6
f 1175/1/6 1181/1/6 1195/1/6
f 1181/1/6 1191/1/6 1195/1/6
f 1195/1/6 1191/1/6 1196/1/6
f 1192/1/6 1193/1/6 1197/1/6
f 1197/1/6 1193/1/6 1198/1/6
f 1194/1/6 1186/1/6 1199/1/6
f 1186/1/6 1180/1/6 1200/1/6
f 1199/1/6 1186/1/6 1200/1/6
f 1175/1/6 1195/1/6 1201/1/6
f 1201/1/6 1195/1/6 1202/1/6
f 1197/1/6 1198/1/6 1203/1/6
f 1198/1/6 1199/1/6 1203/1/6
f 1196/1/6 1197/1/6 1203/1/6
f 1203/1/6 1199/1/6 1204/1/6
f 1200/1/6 1180/1/6 1205/1/6
f 1205/1/6 1180/1/6 1206/1/6
f 1203/1/6 1204/1/6 1207/1/6
f 1204/1/6 1205/1/6 1207/1/6
f 1202/1/6 1203/1/6 1207/1/6
f 1207/1/6 1205/1/6 1208/1/6
f 1209/2/6 1210/2/6 1211/2/6
f 1211/2/6 1210/2/6 1212/2/6
f 1209/2/6 1211/2/6 1213/2/6
f 1213/2/6 1211/2/6 1214/2/6
f 1212/2/6 1210/2/6 1217/2/6
f 1217/2/6 1210/2/6 1218/2/6
f 1214/2/6 1215/2/6 1219/2/6
f 1219/2/6 1215/2/6 1220/2/6
f 1216/2/6 1217/2/6 1223/2/6
f 1223/2/6 1217/2/6 1224/2/6
f 1220/2/6 1221/2/6 1225/2/6
f 1225/2/6 1221/2/6 1226/2/6
f 1222/2/6 1223/2/6 1227/2/6
f 1227/2/6 1223/2/6 1228/2/6
f 1226/2/6 1227/2/6 1230/2/6
f 1230/2/6 1227/2/6 1231/2/6
f 1229/2/6 1230/2/6 1234/2/6
f 1234/2/6 1230/2/6 1235/2/6
f 1231/2/6 1232/2/6 1236/2/6
f 1236/2/6 1232/2/6 1237/2/6
f 1209/2/6 1213/2/6 1239/2/6
f 1233/2/6 1234/2/6 1240/2/6
f 1240/2/6 1234/2/6 1241/2/6
f 1237/2/6 1238/2/6 1242/2/6
f 1242/2/6 1238/2/6 1243/2/6
f 1218/2/6 1210/2/6 1244/2/6
f 1239/2/6 1240/2/6 1245/2/6
f 1243/2/6 1244/2/6 1246/2/6
f 1239/2/6 1245/2/6 1247/2/6
f 1245/2/6 1246/2/6 1247/2/6
f 1209/2/6 1239/2/6 1247/2/6
f 1246/2/6 1244/2/6 1248/2/6
f 1247/2/6 1246/2/6 1248/2/6
f 1244/2/6 1210/2/6 1248/2/6
